<?xml version="1.0" encoding="UTF-8" standalone="no"?>
<svg
   xmlns:dc="http://purl.org/dc/elements/1.1/"
   xmlns:cc="http://creativecommons.org/ns#"
   xmlns:rdf="http://www.w3.org/1999/02/22-rdf-syntax-ns#"
   xmlns:svg="http://www.w3.org/2000/svg"
   xmlns="http://www.w3.org/2000/svg"
   xmlns:sodipodi="http://sodipodi.sourceforge.net/DTD/sodipodi-0.dtd"
   xmlns:inkscape="http://www.inkscape.org/namespaces/inkscape"
   version="1.0"
   width="1220.000000pt"
   height="1280.000000pt"
   viewBox="0 0 1220.000000 1280.000000"
   preserveAspectRatio="xMidYMid meet"
   id="svg28"
   sodipodi:docname="soleil.svg"
   inkscape:version="1.0 (4035a4fb49, 2020-05-01)">
  <defs
     id="defs32" />
  <sodipodi:namedview
     inkscape:document-rotation="0"
     pagecolor="#ffffff"
     bordercolor="#666666"
     borderopacity="1"
     objecttolerance="10"
     gridtolerance="10"
     guidetolerance="10"
     inkscape:pageopacity="0"
     inkscape:pageshadow="2"
     inkscape:window-width="3840"
     inkscape:window-height="1526"
     id="namedview30"
     showgrid="false"
     inkscape:zoom="0.46875"
     inkscape:cx="360"
     inkscape:cy="834.13333"
     inkscape:window-x="-11"
     inkscape:window-y="-11"
     inkscape:window-maximized="1"
     inkscape:current-layer="svg28" />
  <metadata
     id="metadata2">
Created by potrace 1.15, written by Peter Selinger 2001-2017
<rdf:RDF>
  <cc:Work
     rdf:about="">
    <dc:format>image/svg+xml</dc:format>
    <dc:type
       rdf:resource="http://purl.org/dc/dcmitype/StillImage" />
  </cc:Work>
</rdf:RDF>
</metadata>
  <g
     transform="translate(0.000000,1280.000000) scale(0.100000,-0.100000)"
     fill="#ff9800"
     stroke="none"
     id="g26">
    <path
       d="M5974 12776 c-72 -33 -131 -90 -165 -160 l-29 -60 0 -923 c0 -679 3 -929 12 -946 6 -12 15 -29 20 -37 4 -8 11 -22 15 -30 14 -30 93 -97 135 -114 24 -10 51 -22 60 -27 24 -12 158 -11 158 1 0 6 8 10 19 10 27 0 102 44 137 82 43 45 84 122 84 158 0 16 3 31 8 33 4 3 5 409 2 904 l-5 898 -30 54 c-43 78 -103 133 -179 165 -59 25 -179 20 -242 -8z"
       id="path4" />
    <path
       d="M2455 11634 c-72 -19 -170 -93 -200 -150 -11 -21 -23 -41 -26 -44 -21 -17 -35 -161 -19 -203 28 -73 44 -105 79 -152 21 -27 50 -68 66 -90 16 -22 33 -41 37 -43 4 -2 8 -9 8 -16 0 -7 8 -22 18 -34 43 -51 52 -62 69 -89 17 -26 98 -138 126 -173 7 -8 41 -55 77 -105 35 -49 68 -91 72 -93 4 -2 8 -10 8 -17 0 -7 3 -15 8 -17 4 -1 25 -28 47 -58 22 -30 43 -56 47 -58 5 -2 8 -8 8 -13 0 -10 107 -160 190 -266 22 -28 40 -56 40 -61 0 -5 7 -15 16 -23 9 -7 45 -55 81 -106 74 -107 152 -172 214 -180 22 -3 42 -10 45 -14 7 -12 91 -12 98 0 3 4 23 11 43 13 40 6 112 49 150 90 12 12 36 50 54 83 28 54 32 69 32 145 0 101 -11 125 -137 295 -45 61 -91 124 -101 140 -10 17 -25 36 -32 44 -13 13 -75 99 -122 170 -13 20 -27 38 -30 41 -4 3 -24 30 -46 60 -22 30 -48 64 -57 74 -10 11 -20 28 -24 38 -3 10 -10 18 -15 18 -5 0 -9 4 -9 10 0 5 -7 18 -15 27 -8 10 -49 65 -91 123 -43 58 -80 107 -83 110 -3 3 -10 12 -16 22 -13 21 -116 170 -127 183 -5 5 -40 53 -79 105 -128 172 -180 209 -303 215 -45 2 -90 2 -101 -1z"
       id="path6" />
    <path
       d="M9568 11633 c-16 -2 -28 -9 -28 -14 0 -5 -5 -9 -11 -9 -29 0 -110 -82 -184 -185 -11 -16 -32 -44 -47 -64 -15 -20 -31 -40 -35 -46 -5 -5 -21 -30 -38 -55 -16 -25 -33 -46 -37 -48 -5 -2 -8 -8 -8 -14 0 -6 -11 -24 -25 -42 -14 -17 -29 -36 -34 -42 -5 -6 -26 -35 -47 -65 -21 -30 -41 -56 -44 -59 -3 -3 -23 -30 -45 -60 -22 -30 -43 -56 -47 -58 -5 -2 -8 -10 -8 -18 0 -8 -4 -14 -9 -14 -5 0 -12 -8 -15 -17 -3 -10 -19 -34 -36 -53 -16 -19 -30 -38 -30 -42 0 -3 -19 -30 -43 -60 -44 -55 -51 -65 -115 -158 -20 -30 -42 -61 -49 -70 -79 -99 -213 -288 -239 -338 -30 -56 -34 -73 -34 -138 0 -41 4 -82 9 -92 5 -9 15 -30 22 -47 19 -40 26 -50 79 -102 72 -71 114 -85 234 -81 100 3 102 3 162 45 40 27 79 66 110 110 26 37 52 70 56 71 4 2 8 9 8 16 0 7 11 23 25 36 14 13 25 29 25 37 0 7 3 13 8 13 4 1 23 24 42 52 19 28 77 106 128 175 50 69 92 127 92 129 0 6 51 75 61 84 3 3 20 26 37 52 18 25 38 52 45 60 7 7 23 29 34 48 12 20 30 46 41 57 10 12 26 32 35 45 9 13 54 74 99 136 46 62 109 150 141 196 32 46 66 92 75 103 9 10 25 36 36 58 10 22 22 48 27 57 13 25 11 152 -2 185 -31 75 -41 92 -71 124 -18 19 -55 50 -83 69 -48 33 -55 35 -145 36 -52 1 -107 0 -122 -3z"
       id="path8" />
    <path
       d="M5850 9751 c-8 -4 -72 -11 -142 -15 -130 -6 -218 -19 -253 -35 -11 -5 -51 -15 -90 -21 -123 -19 -135 -22 -141 -31 -3 -5 -14 -9 -24 -9 -22 0 -217 -63 -267 -86 -17 -7 -36 -14 -42 -14 -6 0 -19 -4 -29 -9 -9 -5 -35 -17 -57 -26 -169 -72 -344 -160 -368 -184 -6 -6 -17 -11 -24 -11 -8 0 -22 -8 -33 -18 -10 -10 -42 -30 -69 -45 -28 -15 -71 -42 -95 -59 -24 -18 -75 -55 -113 -83 -37 -27 -73 -54 -79 -60 -7 -5 -36 -28 -65 -50 -29 -22 -121 -107 -204 -190 -208 -206 -334 -355 -439 -520 -21 -32 -44 -65 -52 -72 -8 -8 -14 -21 -14 -29 0 -8 -4 -14 -10 -14 -5 0 -10 -5 -10 -11 0 -6 -13 -29 -28 -52 -16 -23 -44 -73 -63 -112 -19 -38 -36 -72 -39 -75 -12 -12 -80 -159 -80 -174 0 -9 -4 -16 -10 -16 -5 0 -10 -9 -10 -19 0 -11 -5 -23 -10 -26 -6 -3 -10 -13 -10 -20 0 -8 -11 -39 -25 -69 -14 -30 -25 -61 -25 -70 0 -8 -4 -18 -10 -21 -5 -3 -10 -17 -10 -30 0 -13 -4 -26 -9 -29 -5 -3 -12 -26 -15 -50 -4 -25 -14 -59 -23 -76 -8 -17 -17 -50 -20 -73 -3 -23 -10 -47 -15 -54 -5 -7 -7 -17 -3 -23 3 -6 -1 -24 -9 -41 -9 -18 -19 -67 -22 -111 -4 -43 -11 -81 -15 -84 -5 -3 -9 -29 -9 -58 0 -28 -6 -58 -12 -64 -10 -10 -13 -106 -13 -412 0 -306 3 -402 13 -411 6 -7 12 -37 12 -65 0 -29 4 -55 9 -58 4 -3 11 -41 15 -84 3 -44 13 -93 22 -111 8 -17 12 -35 9 -41 -4 -6 -2 -16 3 -23 5 -7 12 -31 15 -54 3 -23 12 -56 20 -73 9 -17 19 -51 23 -76 3 -24 10 -47 15 -50 5 -3 9 -16 9 -29 0 -13 5 -27 10 -30 6 -3 10 -13 10 -21 0 -9 11 -40 25 -70 14 -30 25 -61 25 -69 0 -7 5 -17 10 -20 6 -3 10 -15 10 -26 0 -10 5 -19 10 -19 6 0 10 -8 10 -17 0 -17 69 -164 81 -173 3 -3 10 -16 14 -30 4 -14 16 -37 26 -52 11 -14 19 -29 19 -34 0 -4 16 -31 35 -60 19 -29 35 -57 35 -63 0 -6 5 -11 10 -11 6 0 10 -6 10 -14 0 -8 6 -21 14 -29 8 -7 31 -40 52 -72 31 -49 65 -98 112 -160 30 -40 89 -112 99 -120 6 -5 28 -30 48 -55 121 -149 334 -343 545 -499 30 -22 60 -44 65 -48 21 -18 124 -83 130 -83 5 0 64 -39 75 -50 3 -3 27 -16 53 -30 94 -48 102 -53 108 -62 3 -6 9 -9 13 -8 3 0 37 -13 74 -30 37 -17 87 -41 112 -52 25 -11 62 -29 83 -39 20 -10 53 -21 72 -25 19 -3 38 -10 41 -15 3 -5 14 -9 25 -9 10 0 19 -4 19 -10 0 -5 8 -10 18 -10 10 0 51 -11 90 -25 39 -14 83 -25 97 -25 14 0 25 -4 25 -9 0 -5 17 -11 38 -15 115 -17 189 -33 207 -43 23 -13 207 -33 301 -33 35 0 65 -4 68 -9 9 -13 291 -21 416 -11 63 5 171 14 240 19 142 11 258 29 265 41 3 4 35 11 72 15 36 4 76 11 87 15 12 4 39 13 61 18 74 19 280 86 305 99 14 7 30 13 37 13 7 0 27 8 45 18 18 10 52 24 76 32 23 7 42 17 42 22 0 4 6 8 13 8 6 0 39 14 72 30 33 16 63 30 68 30 4 0 41 20 81 45 41 25 77 45 81 45 3 0 61 36 127 80 67 44 126 80 130 80 4 0 8 4 8 10 0 5 12 16 28 24 15 8 39 25 53 38 15 13 42 35 60 50 19 15 47 37 63 50 80 64 259 239 346 338 30 34 60 67 65 74 23 24 112 137 145 183 19 26 39 52 43 58 8 11 79 119 130 200 17 28 50 86 72 130 23 44 46 89 52 100 7 11 18 35 25 53 7 17 16 32 20 32 4 0 10 16 14 35 3 19 10 38 15 41 5 3 9 14 9 25 0 10 5 19 10 19 6 0 10 7 10 15 0 8 4 23 9 33 21 39 41 91 41 105 0 9 5 19 10 22 6 3 10 17 10 30 0 13 4 26 9 29 5 3 12 27 16 53 4 25 13 56 20 67 8 12 21 57 29 101 8 44 22 105 30 135 9 30 16 73 16 95 0 23 4 45 9 51 11 11 17 60 38 336 15 203 15 233 0 435 -21 277 -27 326 -38 337 -5 6 -9 28 -9 51 0 22 -7 65 -16 95 -8 30 -22 91 -30 135 -9 44 -21 89 -29 101 -7 11 -16 42 -20 67 -4 26 -11 50 -16 53 -5 3 -9 16 -9 29 0 13 -4 27 -10 30 -5 3 -10 13 -10 21 0 9 -11 40 -25 70 -14 30 -25 61 -25 69 0 8 -4 15 -10 15 -5 0 -10 11 -10 25 0 14 -4 25 -10 25 -5 0 -10 7 -10 16 0 8 -11 35 -25 60 -14 25 -25 51 -25 59 0 7 -3 15 -7 17 -5 2 -28 43 -53 93 -25 49 -62 117 -84 150 -97 151 -116 181 -123 190 -5 6 -26 35 -48 65 -22 30 -44 60 -50 66 -5 6 -23 28 -40 49 -16 21 -34 43 -40 49 -5 6 -39 44 -75 85 -104 119 -219 231 -345 336 -33 27 -65 54 -71 60 -6 5 -27 21 -47 35 -20 14 -37 28 -37 33 0 4 -7 7 -15 7 -8 0 -20 9 -27 20 -7 11 -16 20 -20 20 -5 0 -36 19 -71 43 -34 24 -84 56 -112 72 -27 15 -52 31 -55 35 -3 4 -15 10 -27 14 -13 4 -23 11 -23 15 0 4 -25 18 -55 31 -30 13 -55 28 -55 32 0 4 -5 8 -11 8 -6 0 -41 14 -78 31 -36 17 -86 40 -111 51 -25 11 -62 29 -83 39 -20 10 -53 21 -72 25 -19 3 -38 10 -41 15 -3 5 -14 9 -25 9 -10 0 -19 4 -19 8 0 4 -27 14 -60 21 -33 8 -63 17 -66 22 -2 5 -27 11 -54 15 -28 4 -50 10 -50 14 0 4 -17 10 -37 14 -99 15 -191 33 -215 44 -14 6 -82 16 -150 21 -68 6 -148 14 -178 17 -93 10 -534 14 -550 5z"
       id="path10" />
    <path
       d="M11800 8599 c-19 -6 -50 -13 -67 -16 -18 -3 -33 -9 -33 -14 0 -5 -11 -9 -24 -9 -14 0 -27 -4 -30 -9 -3 -5 -23 -12 -43 -16 -21 -3 -47 -12 -58 -19 -11 -7 -38 -16 -60 -20 -41 -8 -115 -31 -150 -46 -11 -5 -38 -14 -60 -21 -22 -6 -57 -18 -78 -25 -20 -8 -49 -14 -62 -14 -14 0 -25 -4 -25 -8 0 -4 -21 -13 -47 -20 -27 -8 -56 -18 -65 -23 -10 -5 -27 -9 -37 -9 -11 0 -22 -4 -25 -9 -4 -5 -25 -12 -48 -16 -23 -4 -50 -11 -60 -16 -10 -5 -27 -13 -38 -19 -11 -5 -27 -10 -35 -10 -8 0 -23 -4 -33 -9 -9 -5 -44 -17 -77 -26 -33 -10 -69 -21 -80 -26 -50 -20 -118 -39 -140 -39 -14 0 -25 -3 -25 -7 0 -5 -35 -19 -78 -32 -42 -13 -81 -27 -87 -31 -5 -4 -27 -10 -48 -14 -40 -7 -51 -15 -124 -80 -44 -40 -83 -107 -83 -145 0 -11 -4 -23 -10 -26 -13 -8 -13 -100 -1 -123 6 -9 13 -34 16 -54 3 -21 10 -38 15 -38 6 0 10 -6 10 -14 0 -17 100 -116 118 -116 6 0 12 -4 12 -8 0 -28 228 -48 253 -23 6 6 21 11 33 11 13 0 26 5 29 10 3 6 17 10 31 10 13 0 24 5 24 10 0 6 8 10 17 10 10 0 51 11 93 24 41 14 129 41 195 62 66 21 125 41 130 45 6 4 31 10 58 14 26 4 47 10 47 14 0 4 21 12 48 20 26 7 56 17 67 21 11 5 61 21 110 36 50 15 94 31 99 36 6 4 20 8 32 8 13 0 25 4 28 9 4 5 23 12 44 16 44 7 108 28 118 38 4 4 18 7 30 7 13 0 25 4 28 9 3 4 25 11 48 15 23 4 47 11 53 16 6 5 37 16 69 24 32 9 71 22 88 30 16 9 46 18 67 22 46 9 83 34 144 98 68 71 77 99 76 225 0 111 0 109 -58 192 -22 32 -85 81 -138 108 -31 16 -161 22 -203 10z"
       id="path12" />
    <path
       d="M225 8587 c-16 -6 -32 -14 -35 -17 -3 -3 -18 -12 -34 -20 -34 -18 -106 -96 -125 -136 -7 -16 -17 -37 -22 -46 -5 -10 -9 -53 -9 -97 0 -69 4 -86 31 -137 17 -33 40 -70 52 -83 33 -35 100 -79 133 -87 16 -4 34 -10 40 -15 5 -5 36 -15 68 -23 32 -9 71 -22 87 -30 17 -8 50 -18 74 -22 25 -3 45 -10 45 -15 0 -5 10 -9 23 -9 13 0 27 -4 32 -8 6 -5 28 -14 50 -20 136 -38 161 -46 169 -54 6 -4 20 -8 33 -8 13 0 23 -4 23 -10 0 -5 9 -10 20 -10 22 0 223 -64 252 -80 9 -5 35 -13 58 -16 22 -4 43 -11 46 -15 3 -5 14 -9 25 -9 10 0 27 -4 37 -10 26 -15 170 -60 191 -60 10 0 21 -3 25 -7 4 -4 13 -8 19 -8 7 -1 23 -6 37 -12 14 -6 52 -19 85 -29 33 -10 67 -21 75 -25 87 -38 211 -49 293 -25 31 9 57 21 57 26 0 6 6 10 14 10 16 0 116 106 116 123 1 7 9 30 20 52 23 47 26 147 6 186 -7 14 -16 37 -19 51 -10 38 -98 129 -149 154 -23 12 -68 29 -98 38 -30 9 -64 21 -75 25 -11 5 -40 15 -65 22 -25 7 -49 16 -55 20 -5 4 -26 10 -45 13 -19 4 -44 11 -55 16 -32 14 -178 60 -192 60 -7 0 -22 5 -33 10 -11 6 -29 15 -40 20 -11 6 -29 10 -40 10 -11 0 -20 4 -20 9 0 5 -22 11 -50 15 -27 4 -52 11 -55 16 -3 6 -15 10 -26 10 -10 0 -27 4 -37 9 -9 5 -37 15 -62 22 -25 7 -49 16 -55 20 -5 4 -27 10 -48 14 -20 4 -40 11 -43 16 -3 5 -16 9 -28 9 -20 0 -84 21 -151 51 -11 5 -41 13 -67 19 -55 12 -186 55 -195 64 -4 3 -17 6 -30 6 -12 0 -23 4 -23 9 0 22 -208 36 -255 18z"
       id="path14" />
    <path
       d="M10225 5366 c-5 -2 -29 -9 -52 -16 -24 -7 -43 -17 -43 -22 0 -4 -5 -8 -12 -8 -18 0 -101 -91 -121 -132 -9 -20 -17 -47 -17 -61 0 -14 -4 -29 -10 -32 -5 -3 -10 -26 -10 -50 0 -24 5 -47 10 -50 6 -3 10 -18 10 -32 0 -14 8 -41 17 -61 22 -46 124 -152 147 -152 9 0 16 -4 16 -10 0 -5 9 -10 20 -10 19 0 95 -22 135 -40 11 -4 41 -14 68 -21 26 -8 47 -16 47 -20 0 -4 22 -10 50 -14 27 -4 52 -11 56 -16 3 -5 16 -9 29 -9 13 0 26 -4 29 -9 3 -4 20 -12 38 -16 18 -4 35 -9 38 -10 3 -1 19 -5 35 -9 17 -4 38 -11 47 -17 10 -5 25 -9 33 -9 8 0 25 -5 38 -12 46 -24 57 -28 72 -28 15 0 95 -25 130 -40 11 -5 38 -14 60 -21 22 -7 45 -16 50 -20 6 -3 27 -10 49 -13 21 -4 46 -11 55 -16 9 -4 70 -25 136 -46 66 -20 127 -40 135 -42 8 -3 22 -7 30 -8 24 -5 113 -35 132 -45 10 -5 26 -9 36 -9 10 0 22 -3 26 -7 17 -18 88 -33 153 -33 87 0 157 28 218 87 87 84 95 103 95 238 0 98 -3 120 -21 152 -35 62 -131 149 -176 159 -16 3 -47 14 -70 25 -24 10 -52 19 -63 19 -11 0 -29 5 -40 10 -11 6 -28 14 -38 19 -10 5 -38 12 -62 16 -25 4 -49 10 -55 14 -5 4 -50 20 -100 35 -49 15 -98 32 -107 37 -10 5 -25 9 -33 9 -8 0 -23 4 -33 10 -27 15 -170 60 -192 60 -11 0 -20 5 -20 10 0 6 -11 10 -25 10 -14 0 -34 5 -45 10 -11 6 -29 15 -40 20 -11 6 -26 10 -35 10 -14 0 -149 42 -190 59 -11 5 -47 17 -80 26 -94 28 -208 66 -227 76 -10 5 -25 9 -33 9 -8 0 -23 4 -33 9 -44 22 -93 33 -167 37 -44 2 -84 2 -90 0z"
       id="path16" />
    <path
       d="M1710 5313 c-69 -24 -133 -44 -142 -44 -10 0 -20 -4 -23 -10 -4 -5 -15 -9 -25 -9 -19 0 -97 -23 -135 -40 -11 -5 -38 -14 -60 -21 -22 -6 -47 -15 -55 -19 -9 -4 -31 -11 -50 -14 -34 -7 -65 -18 -102 -37 -10 -5 -25 -9 -33 -9 -8 0 -23 -4 -33 -9 -9 -6 -44 -17 -77 -26 -60 -17 -94 -29 -127 -46 -10 -5 -27 -9 -37 -9 -11 0 -23 -4 -26 -10 -3 -5 -15 -10 -25 -10 -19 0 -155 -42 -195 -60 -11 -5 -36 -12 -55 -16 -19 -3 -39 -9 -45 -13 -16 -10 -79 -31 -93 -31 -7 0 -31 -9 -54 -20 -23 -11 -57 -23 -77 -26 -43 -8 -93 -38 -141 -85 -37 -36 -50 -57 -92 -141 -11 -24 -10 -154 1 -176 5 -9 16 -32 23 -49 7 -18 16 -33 20 -33 5 0 8 -6 8 -14 0 -18 66 -77 126 -112 43 -25 58 -29 134 -29 76 0 137 11 195 36 11 4 52 18 90 30 39 12 75 25 80 29 6 4 26 11 45 15 19 4 102 29 184 56 82 27 154 49 160 49 7 0 31 9 54 20 22 11 50 20 62 20 11 0 28 4 38 10 23 13 109 40 127 40 9 0 24 5 35 10 11 6 29 15 40 20 11 6 27 10 35 10 8 0 23 4 33 10 9 5 58 21 107 36 50 15 95 31 100 35 6 4 30 10 55 14 44 7 53 11 97 33 13 7 32 12 42 12 11 0 23 5 26 10 3 6 17 10 30 10 13 0 27 5 30 10 3 6 15 10 27 10 36 0 89 32 144 87 30 30 54 59 54 64 0 6 10 31 22 57 34 74 30 150 -14 243 -25 54 -47 85 -74 105 -21 16 -46 35 -55 43 -32 27 -94 41 -174 40 -68 -1 -99 -8 -205 -46z"
       id="path18" />
    <path
       d="M8660 3171 c-8 -5 -35 -11 -60 -15 -34 -5 -59 -19 -105 -57 -33 -28 -64 -61 -70 -73 -5 -11 -12 -23 -15 -26 -14 -14 -30 -52 -30 -74 0 -14 -4 -28 -10 -31 -5 -3 -10 -28 -10 -55 0 -27 5 -52 10 -55 6 -3 10 -17 10 -30 0 -13 5 -27 10 -30 6 -3 10 -15 10 -26 0 -10 5 -19 10 -19 6 0 10 -5 10 -11 0 -7 15 -30 33 -53 18 -23 41 -54 51 -69 9 -16 24 -36 31 -45 8 -9 39 -51 69 -92 30 -41 59 -79 63 -85 5 -5 20 -26 33 -45 13 -19 30 -41 37 -48 7 -7 13 -18 13 -23 0 -5 8 -18 18 -30 9 -11 27 -33 39 -47 13 -15 23 -30 23 -34 0 -4 6 -13 13 -20 7 -7 35 -44 62 -83 27 -38 52 -72 55 -75 4 -3 40 -52 80 -110 41 -58 80 -111 86 -117 7 -7 22 -29 35 -50 13 -21 26 -40 29 -43 6 -4 148 -199 198 -270 31 -44 106 -116 147 -140 35 -21 53 -24 145 -24 105 -1 105 -1 160 36 30 20 67 49 82 65 35 37 78 118 78 148 0 13 5 27 10 30 6 3 10 24 10 45 0 21 -4 42 -10 45 -5 3 -10 17 -10 30 0 34 -45 114 -110 195 -20 25 -45 58 -55 74 -11 16 -29 41 -40 56 -11 15 -38 54 -60 86 -22 32 -48 66 -57 75 -10 9 -18 20 -18 23 0 4 -6 14 -12 21 -30 33 -38 45 -38 54 0 5 -4 11 -8 13 -4 2 -30 35 -57 73 -55 78 -55 78 -88 120 -13 17 -57 77 -97 135 -41 58 -77 107 -82 108 -4 2 -8 10 -8 18 0 8 -3 14 -7 14 -5 0 -21 20 -38 45 -16 24 -33 45 -37 45 -5 0 -8 5 -8 10 0 9 -125 186 -163 230 -7 8 -25 34 -41 57 -50 75 -148 143 -205 143 -16 0 -33 5 -36 10 -7 12 -54 13 -75 1z"
       id="path20" />
    <path
       d="M3387 3136 c-86 -45 -113 -73 -244 -266 -21 -30 -46 -62 -55 -71 -10 -9 -18 -20 -18 -24 0 -4 -11 -21 -25 -39 -32 -39 -32 -40 -79 -106 -22 -30 -43 -56 -48 -58 -4 -2 -8 -10 -8 -18 0 -8 -4 -14 -9 -14 -5 0 -12 -8 -15 -18 -4 -10 -14 -27 -24 -38 -10 -10 -51 -66 -91 -124 -41 -58 -78 -106 -82 -108 -5 -2 -9 -10 -9 -18 0 -8 -4 -14 -8 -14 -4 0 -16 -15 -27 -32 -10 -18 -24 -38 -29 -44 -6 -6 -20 -23 -31 -39 -57 -80 -97 -135 -127 -175 -18 -25 -36 -49 -40 -55 -4 -5 -18 -23 -31 -40 -51 -66 -135 -192 -153 -230 -21 -46 -26 -207 -6 -227 7 -7 12 -19 12 -28 0 -10 10 -28 21 -41 12 -13 28 -34 36 -46 8 -12 40 -39 71 -60 l57 -38 115 0 115 0 58 39 c51 34 96 86 192 221 8 11 36 49 62 85 27 36 61 86 78 110 16 25 37 52 45 60 9 8 29 36 45 62 17 27 33 48 38 48 4 0 7 6 7 14 0 8 4 16 8 18 4 2 37 44 72 93 35 50 70 96 77 103 7 8 18 23 25 35 14 28 71 101 81 105 4 2 7 8 7 13 0 12 70 109 78 109 4 0 20 23 37 50 16 28 33 50 37 50 4 0 8 5 8 11 0 7 15 30 33 53 18 23 48 62 65 88 18 25 38 52 44 60 7 7 31 40 53 73 l40 60 0 113 c0 64 -4 116 -10 120 -6 4 -17 20 -25 37 -23 46 -58 82 -119 123 -54 35 -60 37 -156 40 -91 3 -104 1 -148 -22z"
       id="path22" />
    <path
       d="M6040 2320 c0 -5 -11 -10 -25 -10 -28 0 -120 -56 -150 -92 -28 -34 -65 -106 -65 -128 0 -10 -4 -22 -10 -25 -7 -4 -10 -317 -10 -906 0 -593 3 -899 10 -899 6 0 10 -8 10 -19 0 -64 95 -178 185 -220 54 -25 183 -29 236 -7 72 30 147 95 171 149 7 15 16 27 20 27 5 0 8 11 8 24 0 14 5 28 10 31 7 4 10 322 10 920 0 598 -3 916 -10 920 -5 3 -10 15 -10 26 0 10 -4 19 -10 19 -5 0 -10 9 -10 20 0 44 -140 160 -194 160 -14 0 -28 5 -31 10 -3 6 -35 10 -71 10 -36 0 -64 -4 -64 -10z"
       id="path24" />
  </g>
  <path
     style="fill:#ffffff;stroke-width:2.13333"
     d="m 756.8,1297.201 c -31.01423,-3.8021 -77.20988,-14.6074 -92.05574,-21.5321 -3.69733,-1.7245 -7.42296,-3.1356 -8.27917,-3.1356 -4.88587,0 -50.46044,-22.1607 -71.5955,-34.8135 -82.39837,-49.3288 -148.19778,-125.3472 -184.51958,-213.1765 -14.37927,-34.77033 -20.86535,-57.48995 -29.55326,-103.51996 -4.66616,-24.72209 -4.66616,-110.65792 0,-135.38001 11.44579,-60.64173 25.70716,-102.16792 50.69685,-147.6188 44.75508,-81.39988 117.84128,-149.99542 201.97307,-189.56316 25.10174,-11.80551 71.43797,-27.82517 90.25679,-31.20414 6.81455,-1.22357 13.20512,-2.72838 14.20123,-3.34403 3.34964,-2.07018 62.21472,-7.5132 81.25364,-7.5132 49.38485,0 100.69817,7.56424 140.68834,20.73926 132.06653,43.51018 235.21633,142.59595 284.88503,273.66074 4.8426,12.77847 13.4131,43.13879 15.9589,56.53333 1.3381,7.04 3.2676,16.64 4.2878,21.33334 1.0202,4.69333 3.0066,23.53864 4.4142,41.87846 2.5581,33.32851 0.431,84.97203 -4.4257,107.45487 -1.0139,4.69333 -2.9382,14.29333 -4.2763,21.33333 -10.7844,56.74007 -41.9439,123.27217 -82.9268,177.06667 -24.8394,32.6044 -78.5244,82.1693 -111.2505,102.7125 -20.1552,12.6521 -39.8431,24.2208 -41.2194,24.2208 -0.6571,0 -9.4816,3.8462 -19.61016,8.5471 -32.23127,14.9593 -74.60759,27.67 -114.10374,34.2252 -21.26308,3.529 -99.35729,4.2145 -124.8,1.0954 z"
     id="path34"
     transform="scale(0.75000002)" />
  <path
     style="fill:#ffffff;stroke-width:2.13333"
     d="m 455.80552,419.90131 c -4.8003,-1.66506 -12.13865,-6.58402 -16.30745,-10.93101 -4.1688,-4.347 -32.58821,-42.46363 -63.15423,-84.70363 -30.56602,-42.24 -59.90546,-82.58173 -65.19874,-89.64829 -5.29329,-7.06656 -11.10637,-16.39573 -12.91796,-20.73149 -7.61985,-18.23687 -0.94874,-38.14971 16.80223,-50.15356 8.47881,-5.73368 12.27779,-6.93333 21.95598,-6.93333 6.52344,0 15.03351,1.58035 19.22779,3.57067 7.97647,3.78508 23.42386,22.00364 45.31152,53.44014 7.16956,10.29739 20.91951,29.44961 30.55545,42.56049 9.63594,13.11088 30.9528,42.39088 47.3708,65.06666 l 29.85091,41.22871 0.75994,15.02438 c 0.72162,14.26709 0.3997,15.5037 -6.38641,24.53333 -4.57315,6.08506 -11.37038,11.59672 -18.87751,15.30714 -13.07828,6.46402 -16.40494,6.73594 -28.99232,2.36979 z"
     id="path36"
     transform="scale(0.75000002)" />
  <path
     style="fill:#ffffff;stroke-width:2.13333"
     d="m 802.129,307.35627 c -10.46109,-3.73321 -22.17778,-12.77925 -25.90439,-19.99988 -2.38023,-4.6119 -3.28439,-30.15765 -4.54759,-128.48632 C 770.1099,36.884777 770.12749,36.086893 774.57659,27.36595 791.26504,-5.3461203 832.49013,-7.7417075 850.47973,22.955223 L 856,32.374859 V 153.32262 c 0,130.41016 0.0742,129.47907 -11.30182,141.8697 -5.09482,5.54925 -24.95425,15.26545 -30.89234,15.11405 -2.01988,-0.0514 -7.27446,-1.37905 -11.67684,-2.9501 z"
     id="path38"
     transform="scale(0.75000002)" />
  <path
     style="fill:#ffffff;stroke-width:2.13333"
     d="m 1132.0552,410.24399 c -12.5702,-11.58682 -15.7885,-18.13423 -15.7885,-32.12038 0,-13.78588 1.0961,-15.64393 44.3579,-75.19028 114.6252,-157.77211 104.2724,-146.11196 129.7417,-146.12536 14.7841,-0.008 15.4232,0.21813 25.3587,8.9637 5.6058,4.93442 11.5009,12.10359 13.1003,15.93148 3.9381,9.42506 3.6652,25.02783 -0.5829,33.33612 -3.5873,7.01584 -25.7691,38.0814 -81.7999,114.56073 -17.6221,24.05333 -35.3538,48.71866 -39.4038,54.81182 -9.8804,14.86498 -21.9503,27.99157 -29.1724,31.72629 -3.5069,1.81348 -12.0724,3.06189 -21.008,3.06189 -14.755,0 -15.3008,-0.19712 -24.8031,-8.95601 z"
     id="path40"
     transform="scale(0.75000002)" />
  <path
     style="fill:#ffffff;stroke-width:2.13333"
     d="m 1358.4,712.06852 c -2.3467,-0.57009 -7.4684,-3.44993 -11.3816,-6.39963 -21.011,-15.83762 -22.7844,-45.01079 -3.8691,-63.6508 9.7802,-9.63793 9.7292,-9.61814 98.4507,-38.16981 28.16,-9.06223 60.32,-19.41336 71.4667,-23.00249 11.1466,-3.58914 28.2884,-9.368 38.0929,-12.8419 25.0486,-8.87521 39.2692,-9.79078 51.3393,-3.3054 18.6683,10.03074 26.0119,25.34472 22.7106,47.35959 -1.1085,7.39192 -3.5604,11.83595 -10.4302,18.90441 -7.5348,7.75276 -12.5825,10.46176 -31.3468,16.82318 -26.1119,8.85239 -110.4314,36.271 -150.3658,48.89525 -15.2534,4.82195 -32.8094,10.60135 -39.0134,12.84313 -10.5715,3.81994 -25.9001,4.9139 -35.6533,2.54447 z"
     id="path42"
     transform="scale(0.75000002)" />
  <path
     style="fill:#ffffff;stroke-width:2.13333"
     d="m 1577.0667,1144.3757 c -8.5654,-1.6169 -18.1697,-4.6298 -113.0667,-35.4688 -115.8453,-37.6466 -110.5505,-35.6428 -120.8223,-45.7238 -16.3,-15.9973 -17.3434,-39.4863 -2.5046,-56.3868 9.3033,-10.59585 16.5478,-13.72963 31.7394,-13.72963 11.119,0 26.9192,4.49212 101.9726,28.99153 48.8482,15.9454 97.8456,31.924 108.8831,35.5081 21.283,6.911 33.6119,15.5281 40.0617,28.0006 4.844,9.3672 2.8629,33.1057 -3.4304,41.1065 -10.9576,13.9302 -27.217,20.6501 -42.8328,17.7023 z"
     id="path44"
     transform="scale(0.75000002)" />
  <path
     style="fill:#ffffff;stroke-width:2.13333"
     d="m 1270.9333,1545.8623 c -8.6603,-5.397 -14.5607,-12.1923 -34.4962,-39.729 -21.6344,-29.8833 -64.0992,-88.2664 -89.2212,-122.6666 -24.0615,-32.948 -28.0831,-39.5786 -29.8771,-49.2603 -3.5789,-19.3133 11.4848,-41.7523 32.0404,-47.728 10.8185,-3.145 12.0386,-3.0871 23.2346,1.1018 13.2589,4.9608 18.12,9.9311 41.1354,42.0598 8.1794,11.418 30.6359,42.36 49.9035,68.76 69.9626,95.8613 70.25,96.3154 70.1931,110.9193 -0.041,10.4283 -9.6956,26.8886 -19.8831,33.8978 -8.3231,5.7264 -11.5365,6.6485 -23.1471,6.6416 -9.4533,-0.01 -15.3948,-1.1998 -19.8823,-3.9964 z"
     id="path46"
     transform="scale(0.75000002)" />
  <path
     style="fill:#ffffff;stroke-width:2.13333"
     d="m 796.70126,1701.1804 c -10.35893,-5.2638 -18.80072,-15.1891 -21.91085,-25.7613 -1.26881,-4.3131 -2.12131,-53.8263 -2.14746,-124.7255 -0.0386,-104.7676 0.34343,-118.5397 3.50798,-126.4487 7.25369,-18.1288 30.78609,-31.0029 47.20375,-25.8243 13.1024,4.1329 23.68418,12.1411 28.86984,21.8484 l 4.84215,9.0643 v 122.8225 122.8225 l -5.78271,8.7382 c -9.28002,14.0231 -19.31939,20.4477 -33.3592,21.3479 -9.26933,0.5944 -14.17784,-0.3039 -21.2235,-3.884 z"
     id="path48"
     transform="scale(0.75000002)" />
  <path
     style="fill:#ffffff;stroke-width:2.13333"
     d="m 313.98343,1542.9333 c -13.31435,-10.2399 -17.31721,-18.9305 -16.46879,-35.7552 0.80036,-15.8714 -0.18289,-14.2591 54.6259,-89.5781 16.64951,-22.88 39.62905,-54.4933 51.06565,-70.2519 41.47358,-57.1465 44.5181,-59.8814 66.66048,-59.8814 16.07487,0 23.78923,3.83 34.3756,17.0666 4.62158,5.7786 6.29409,10.6601 7.39777,21.5915 1.60171,15.864 2.73144,13.6485 -29.38706,57.6307 -26.90858,36.8479 -55.33331,76.0052 -73.34938,101.0445 -45.94711,63.8587 -47.26254,65.0667 -70.85623,65.0667 -13.70694,0 -15.85297,-0.6184 -24.06394,-6.9334 z"
     id="path50"
     transform="scale(0.75000002)" />
  <path
     style="fill:#ffffff;stroke-width:2.13333"
     d="m 25.858231,1142.5247 c -14.179898,-7.7446 -25.32489767,-24.8415 -25.32489767,-38.8493 0,-9.7597 7.60659007,-24.2009 16.69193367,-31.6898 7.328952,-6.0411 72.354422,-28.4842 204.108063,-70.4464 33.29575,-10.60433 44.58232,-10.76633 58.89826,-0.8454 10.2655,7.114 18.94196,23.1991 18.90072,35.0395 -0.0339,9.719 -6.26878,22.9758 -14.39416,30.6052 -5.95042,5.5872 -28.05738,14.8236 -51.67148,21.5886 -5.28,1.5126 -32.16,10.1422 -59.73334,19.1768 -27.57333,9.0346 -64.87113,21.2521 -82.884001,27.15 -38.422724,12.5806 -53.228815,14.4765 -64.591098,8.2708 z"
     id="path52"
     transform="scale(0.75000002)" />
  <path
     id="path54"
     style="fill:#800000;stroke-width:2.13333"
     d="M 816.625 408.35938 C 758.38421 408.19571 718.77623 414.51713 668.26758 432.03711 C 567.0351 467.15169 479.31792 539.78312 426.32031 632.375 C 404.33979 670.77704 390.78807 705.36226 379.0293 753.06641 C 369.96893 789.82342 367.8549 814.2782 369.07227 868.26758 C 369.98464 908.73049 370.91214 918.7301 375.80469 940.80078 C 383.2921 974.57701 388.12388 990.44175 399.69727 1019.2559 C 455.25137 1157.568 582.24741 1263.467 724.94531 1290.4746 C 740.70552 1293.4575 756.95974 1296.3111 761.06641 1296.8145 C 765.17308 1297.3178 793.01359 1297.4645 822.93359 1297.1406 C 873.26733 1296.5957 879.24713 1296.1163 902.93359 1290.7383 C 990.29519 1270.9029 1050.1023 1239.637 1116.9824 1178.834 C 1183.0581 1118.7623 1232.0596 1032.7279 1250.5664 944.29688 C 1261.9971 889.67967 1262.0155 820.08571 1250.6133 763.42188 C 1230.936 665.63447 1173.4572 571.346 1095.0449 508.22656 C 1012.2846 441.60717 920.40525 408.65101 816.625 408.35938 z M 47.037109 561.94922 C 38.402333 561.93355 28.909244 563.85181 22.970703 567.33203 C 2.2139447 579.4963 -4.8226118 602.97308 6.3261719 622.86523 C 9.5933032 628.69459 15.484878 635.62454 19.417969 638.26562 C 23.351063 640.90674 65.109885 655.61591 112.2168 670.95117 C 159.32371 686.28643 207.94758 702.115 220.26758 706.12695 C 232.58758 710.13889 245.06667 713.83176 248 714.33203 C 270.27977 718.13179 291.22319 704.0667 297.33984 681.19727 C 300.60027 669.00685 297.23024 656.63143 287.69336 645.76953 C 279.21483 636.11301 271.76856 632.69828 230.93359 619.74023 C 211.57359 613.59677 191.04621 606.76292 185.31641 604.55273 C 179.58661 602.34254 173.57262 600.5332 171.95312 600.5332 C 170.33367 600.5332 167.3421 599.61872 165.30469 598.5 C 163.26727 597.38127 139.99961 589.64661 113.59961 581.3125 C 87.199606 572.97838 63.394428 565.25364 60.699219 564.14648 C 57.090116 562.66391 52.217975 561.95862 47.037109 561.94922 z "
     transform="scale(0.75000002)" />
  <path
     style="fill:#ffcc00;stroke-width:2.13333"
     d="m 753.6,1294.5664 c -2.34667,-0.5163 -14.82667,-2.9126 -27.73333,-5.3251 -129.07527,-24.1272 -248.7975,-116.0533 -310.20298,-238.1828 -20.04061,-39.8588 -37.15367,-93.31373 -42.68942,-133.3462 -3.46733,-25.07439 -2.9295,-109.53197 0.84469,-132.64563 14.9939,-91.82475 58.97847,-178.28722 123.7612,-243.28307 68.5782,-68.8038 157.53788,-114.42626 249.61984,-128.01608 33.85248,-4.99609 95.03846,-5.03139 129.90701,-0.075 201.20509,28.60055 360.28919,195.28996 378.86179,396.97411 9.6383,104.66485 -15.4262,202.78907 -74.1108,290.13337 -52.3035,77.8469 -134.1992,142.028 -218.9819,171.6148 -26.83964,9.3663 -64.2736,18.7923 -84.90356,21.3791 -16.83965,2.1115 -115.50063,2.7243 -124.37254,0.7725 z"
     id="path891"
     transform="scale(0.75000002)" />
  <path
     style="fill:#ffffff;stroke-width:2.13333"
     d="M 160.53333,685.69437 C 53.05641,650.47831 23.134897,639.69997 16.933533,633.9668 -2.1665354,616.30877 -2.386705,591.21358 16.40946,574.23237 c 8.837053,-7.98375 25.77592,-13.0938 35.992912,-10.85821 19.316615,4.2267 220.312448,72.00707 226.885608,76.511 11.05845,7.57723 19.74893,25.78639 17.8032,37.30303 -1.76282,10.4341 -8.02464,20.00322 -18.72393,28.61336 -6.44776,5.18876 -10.4467,6.6013 -20.26666,7.15877 -10.89986,0.61878 -21.53922,-2.35448 -97.56726,-27.26595 z"
     id="path893"
     transform="scale(0.75000002)" />
  <path
     style="fill:#ffffff;stroke-width:2.13333"
     d="m 454.10529,417.67556 c -11.41913,-5.62519 -17.12822,-12.63326 -77.03862,-94.56707 -69.19565,-94.63236 -76.02143,-104.54815 -79.145,-114.97371 -4.70964,-15.71936 2.21754,-31.92786 18.55162,-43.40789 7.03368,-4.94345 10.93096,-6.09832 20.57972,-6.09832 21.73646,0 26.23916,4.29658 74.09676,70.70476 17.33423,24.05334 46.51681,64.33772 64.85017,89.52085 l 33.33339,45.78752 v 12.45176 c 0,14.61342 -3.25132,21.8333 -14.13587,31.39006 -14.60675,12.8249 -27.74943,15.76484 -41.09217,9.19204 z"
     id="path895"
     transform="scale(0.75000002)" />
  <path
     id="path897"
     style="fill:#800000;stroke-width:2.13333"
     d="M 337.37695 158.62891 C 325.24279 158.62891 313.72827 164.67057 305.94141 173.70703 C 305.90441 173.74997 305.86496 173.79091 305.82812 173.83398 C 305.82573 173.83677 305.82271 173.83901 305.82031 173.8418 C 300.59709 179.91492 297.0774 187.30677 296.24023 195.05859 C 296.08361 196.39443 296 197.74149 296 199.09766 C 296 200.93136 296.31592 202.94792 297.06836 205.35352 C 299.11976 212.29236 304.7611 222.10583 317.5957 240.7168 C 326.67177 253.99605 339.2261 271.53024 356.65039 295.4668 C 438.33914 407.68642 442.41612 412.78245 454.93359 418.33008 C 467.92087 424.08594 481.09738 420.86426 495.19727 408.48438 C 496.55995 407.28792 497.8037 406.12834 498.93555 404.98633 C 499.50008 404.41676 500.03657 403.85028 500.54688 403.28711 C 500.54814 403.28572 500.54952 403.2846 500.55078 403.2832 C 501.0609 402.72011 501.5439 402.15915 502.00195 401.59766 C 502.00313 401.59621 502.00468 401.59519 502.00586 401.59375 C 502.464 401.03199 502.89651 400.47121 503.30469 399.90625 C 503.30555 399.90506 503.30578 399.90353 503.30664 399.90234 C 503.71468 399.33742 504.09874 398.77019 504.45898 398.19727 C 504.45977 398.19602 504.46016 398.1946 504.46094 398.19336 C 504.60135 397.96998 504.72209 397.74073 504.85547 397.51562 C 505.06515 397.16187 505.28191 396.81007 505.47461 396.45117 C 505.78872 395.86596 506.08085 395.27466 506.35156 394.67188 C 506.3524 394.67 506.35268 394.66789 506.35352 394.66602 C 506.62538 394.06069 506.87522 393.44615 507.10547 392.81836 C 507.33426 392.19422 507.54259 391.55939 507.73242 390.9082 C 507.73334 390.90507 507.73346 390.90157 507.73438 390.89844 C 508.1145 389.59388 508.41979 388.23043 508.65625 386.78906 C 508.65708 386.784 508.65737 386.7785 508.6582 386.77344 C 508.89393 385.33312 509.06237 383.81611 509.17188 382.20117 C 509.17243 382.19295 509.17327 382.18401 509.17383 382.17578 C 509.19041 381.93032 509.19703 381.66602 509.21094 381.41602 C 509.24294 380.83868 509.27671 380.26482 509.29492 379.66211 C 509.32089 378.81121 509.33362 377.93283 509.33398 377.02734 C 509.33398 377.01278 509.33398 377.00281 509.33398 376.98828 L 509.33398 364.43359 L 459.98242 296.34961 C 432.83919 258.90381 403.66148 218.66693 395.14453 206.93359 C 378.69389 184.27044 368.85802 171.98822 360.1582 165.48438 C 352.23679 159.06885 346.46201 158.62891 337.37695 158.62891 z "
     transform="scale(0.75000002)" />
  <path
     style="fill:#800000;stroke-width:2.13333"
     d="m 798.4,304.21365 c -4.69333,-2.17762 -11.77145,-7.36409 -15.72914,-11.52552 l -7.19581,-7.56619 -1.99476,-83.89431 c -1.09711,-46.14186 -1.699,-103.179432 -1.33752,-126.750152 L 772.8,31.621623 l 6.25027,-9.01236 C 782.48793,17.652466 789.48463,11.144872 794.5985,8.1479443 802.4927,3.5216335 805.82092,2.8381881 816.64356,3.6210268 831.10146,4.6668169 837.38065,8.3934479 848,22.230718 l 6.93333,9.034304 -0.0698,112.367488 c -0.0384,61.80212 -0.89948,118.80039 -1.91354,126.66283 -2.302,17.84849 -7.10019,24.79255 -22.26029,32.21574 -13.782,6.74838 -20.6358,7.10976 -32.2897,1.70257 z"
     id="path902"
     transform="scale(0.75000002)" />
  <path
     style="fill:#800000;stroke-width:2.13333"
     d="m 1148.4244,417.4729 c -14.867,-1.81513 -31.0911,-22.22848 -31.0911,-39.11917 0,-12.86077 4.1338,-19.3889 67.2809,-106.25017 84.8316,-116.68939 85.0059,-116.8708 109.5864,-114.08983 11.4385,1.29411 13.8759,2.47675 22.376,10.85682 18.1086,17.85278 18.6272,34.16987 1.8667,58.7316 -23.4353,34.34331 -116.2103,161.38221 -125.6568,172.06479 -5.5447,6.27017 -12.07,12.64182 -14.5006,14.15926 -4.8167,3.0071 -19.9567,4.856 -29.8615,3.6467 z"
     id="path904"
     transform="scale(0.75000002)" />
  <path
     style="fill:#800000;stroke-width:2.13333"
     d="m 1349.4035,705.76305 c -8.1579,-5.60382 -18.7469,-23.42583 -18.7249,-31.51525 0.024,-9.03448 4.7083,-20.74969 11.3044,-28.27489 7.4272,-8.47323 22.8778,-16.19807 49.4837,-24.74029 9.3866,-3.01373 54.2482,-17.54396 99.6924,-32.2894 57.0957,-18.52607 85.6698,-26.80989 92.4776,-26.80989 34.1672,0 54.1319,40.52639 32.2581,65.48106 -8.0009,9.1278 -23.1109,16.35356 -56.9615,27.2395 -13.4933,4.3393 -58.3738,18.85234 -99.7344,32.2512 -64.2055,20.79955 -77.1504,24.34283 -88.5333,24.23334 -10.6697,-0.10263 -14.9159,-1.21607 -21.2621,-5.57538 z"
     id="path906"
     transform="scale(0.75000002)" />
  <path
     style="fill:#800000;stroke-width:2.13333"
     d="m 1568.5333,1141.0506 c -50.1166,-14.9671 -199.1458,-64.4653 -210.1333,-69.7932 -10.9819,-5.3252 -15.1022,-8.7533 -19.8059,-16.4782 -8.9888,-14.7625 -9.5824,-23.0865 -2.6559,-37.2438 11.4039,-23.30878 28.8888,-27.81461 66.1951,-17.0583 10.56,3.0447 58.6671,18.4466 106.9047,34.2264 93.3539,30.5387 104.4454,35.4914 112.1158,50.0632 4.3625,8.2876 5.0036,20.5539 1.6964,32.4613 -2.6472,9.5315 -15.6301,21.3186 -27.3482,24.8295 -10.3192,3.0917 -13.6627,2.9669 -26.9687,-1.0069 z"
     id="path908"
     transform="scale(0.75000002)" />
  <path
     style="fill:#800000;stroke-width:2.13333"
     d="m 1282.6667,1547.7063 c -16.6816,-2.4171 -12.2536,2.7082 -90.8634,-105.17 -70.584,-96.864 -73.4549,-101.3585 -73.254,-114.682 0.2848,-18.8962 16.807,-37.6989 36.6061,-41.6587 9.2141,-1.8428 20.9689,2.5641 30.9915,11.619 7.9038,7.1405 111.5109,147.8978 135.1302,183.5834 9.191,13.8864 10.4562,17.1555 10.4562,27.0163 0,9.0314 -1.2475,12.9821 -6.4,20.2676 -11.4882,16.244 -23.8414,21.7521 -42.6666,19.0244 z"
     id="path910"
     transform="scale(0.75000002)" />
  <path
     style="fill:#800000;stroke-width:2.13333"
     d="m 798.4,1700.9829 c -6.87732,-3.7943 -16.10587,-13.0194 -19.92379,-19.9162 -3.15567,-5.7006 -3.61408,-19.066 -4.19443,-122.2925 -0.44471,-79.1033 0.10042,-119.5147 1.71729,-127.3031 1.9143,-9.2211 4.14846,-13.051 11.64329,-19.9595 10.68576,-9.8498 23.01149,-14.2892 33.96666,-12.234 10.03334,1.8822 24.6435,13.2204 30.61034,23.755 l 4.77712,8.4341 0.0351,120.6911 0.0351,120.6912 -7.40786,10.4193 c -10.19139,14.3344 -20.45272,20.1906 -35.25881,20.1226 -6.45333,-0.03 -13.65333,-1.1133 -16,-2.408 z"
     id="path912"
     transform="scale(0.75000002)" />
  <path
     style="fill:#800000;stroke-width:2.13333"
     d="m 328.48231,1547.7098 c -10.90413,-1.6068 -24.68766,-13.8199 -28.44473,-25.2039 -3.86814,-11.7206 -0.99684,-26.3917 7.88828,-40.3055 18.46108,-28.9095 120.28256,-167.0641 132.12175,-179.2671 13.72026,-14.1417 14.91461,-14.5698 37.28572,-13.3627 22.57489,1.218 40.99367,33.0504 31.09058,53.7325 -3.32926,6.953 -120.37874,169.0794 -134.80926,186.7256 -13.44835,16.4453 -24.40079,20.736 -45.13234,17.6811 z"
     id="path914"
     transform="scale(0.75000002)" />
  <path
     style="fill:#ffffff;stroke-width:2.13333"
     d="m 25.066667,1140.197 c -16.6127607,-10.0987 -26.06468769,-29.7797 -21.5456434,-44.863 4.9055547,-16.3732 14.4977074,-24.0175 43.4939014,-34.6617 31.307298,-11.4925 164.667255,-55.4048 186.962295,-61.56229 30.69839,-8.47832 48.71048,-2.06425 59.32751,21.12639 6.29638,13.7531 5.68477,21.7542 -2.76508,36.1728 -7.46108,12.7314 -19.87699,18.3865 -89.47298,40.7525 -29.33334,9.4268 -73.01334,23.5281 -97.06667,31.3362 -51.051424,16.572 -67.023008,18.9392 -78.933333,11.6991 z"
     id="path916"
     transform="scale(0.75000002)" />
  <path
     style="fill:#ffffff;stroke-width:2.13333"
     d="m 452.71622,415.2301 c -9.97795,-6.08476 -21.5814,-20.27545 -64.8762,-79.3418 -78.49928,-107.0952 -89.70669,-124.1984 -89.70669,-136.89799 0,-23.82329 23.43352,-42.96058 47.6046,-38.8769 13.93181,2.35376 26.76466,17.52699 98.23733,116.15326 l 65.70448,90.66666 -1.45973,11.73112 c -1.65715,13.31759 -4.80253,20.37881 -12.01731,26.97824 -14.83762,13.57209 -31.08014,17.15306 -43.48648,9.58741 z"
     id="path918"
     transform="scale(0.75000002)" />
  <path
     style="fill:#ffffff;stroke-width:2.13333"
     d="m 797.33333,301.9555 c -4.10666,-2.19411 -10.67076,-7.32414 -14.58688,-11.40009 L 775.62624,283.1446 774.4639,157.57229 773.30156,32 782.36172,21.795134 C 793.81132,8.8989225 800.75075,5.3333333 814.4,5.3333333 c 13.75909,0 21.03782,3.7845122 31.25148,16.2489337 l 8.1247,9.915132 -0.5797,116.517971 c -0.33429,67.19146 -1.49258,121.18474 -2.73608,127.54171 -4.60188,23.52546 -32.53023,37.40283 -53.12707,26.39842 z"
     id="path920"
     transform="scale(0.75000002)" />
  <path
     style="fill:#ffffff;stroke-width:2.13333"
     d="m 1140.7667,413.15381 c -11.3437,-5.97118 -21.3,-22.02357 -21.3,-34.34152 0,-12.83889 4.9127,-20.96601 52.6107,-87.03456 74.8824,-103.72256 95.5336,-129.26049 106.8163,-132.09227 2.7891,-0.70001 9.8802,-0.81064 15.7581,-0.24585 8.8112,0.84665 12.1918,2.48372 19.2601,9.32697 4.7152,4.56505 9.934,10.89241 11.5973,14.06081 4.3515,8.28914 3.724,21.81773 -1.4931,32.19093 -8.0126,15.93165 -116.9628,166.3651 -135.0862,186.5209 -14.0168,15.58874 -32.2571,19.98739 -48.1632,11.61459 z"
     id="path922"
     transform="scale(0.75000002)" />
  <path
     style="fill:#ffffff;stroke-width:2.13333"
     d="m 1348.7485,702.60198 c -15.3961,-13.51797 -19.7405,-30.80562 -11.7015,-46.56338 8.7533,-17.15784 18.9901,-22.03118 104.553,-49.77319 136.3667,-44.21412 144.4032,-46.13778 159.8483,-38.26209 4.0233,2.05151 10.22,7.36572 13.7706,11.80935 5.2817,6.61011 6.6041,10.48959 7.2719,21.33334 1.0221,16.59487 -3.9738,24.9946 -20.8996,35.13959 -10.7266,6.42926 -99.3652,36.58309 -186.1762,63.33497 -40.5374,12.49208 -55.093,13.14303 -66.6665,2.98141 z"
     id="path924"
     transform="scale(0.75000002)" />
  <path
     style="fill:#ffffff;stroke-width:2.13333"
     d="m 1567.4667,1139.8098 c -76.776,-24.4818 -198.3715,-65.4499 -208.5596,-70.2681 -11.2757,-5.3325 -14.3507,-8.0461 -19.7133,-17.3965 -7.8822,-13.7435 -8.0489,-22.3934 -0.6923,-35.9101 9.866,-18.12693 23.0609,-23.06296 47.9235,-17.92745 16.843,3.47905 146.5837,44.66225 186.36,59.15575 42.2241,15.3853 50.1324,22.5582 50.1324,45.4699 0,15.4403 -4.5079,23.9528 -17.0959,32.2831 -9.941,6.5787 -26.071,8.5104 -38.3548,4.5934 z"
     id="path926"
     transform="scale(0.75000002)" />
  <path
     style="fill:#ffffff;stroke-width:2.13333"
     d="m 1280.5333,1546.3092 c -13.2283,-2.8808 -17.52,-8.0104 -88.9418,-106.3092 -72.8932,-100.3239 -75.5101,-104.8785 -69.9454,-121.7398 3.2855,-9.955 15.9861,-24.1662 24.952,-27.9197 16.8319,-7.0464 31.4831,-0.9317 48.0514,20.0544 35.7235,45.249 125.2845,169.1608 132.5332,183.3658 5.6087,10.9913 4.478,22.1364 -3.4494,33.9982 -10.3744,15.5233 -26.0973,22.2748 -43.2,18.5503 z"
     id="path928"
     transform="scale(0.75000002)" />
  <path
     style="fill:#ffffff;stroke-width:2.13333"
     d="m 789.05058,1691.1204 c -8.49109,-8.4911 -10.45212,-11.9581 -11.63175,-20.5644 -2.28365,-16.661 -1.68022,-233.9394 0.67249,-242.1428 4.1209,-14.3688 22.50702,-27.8799 37.93936,-27.8799 10.53404,0 26.21825,9.7611 33.23856,20.686 l 5.21405,8.114 1.08398,120.8886 c 1.19318,133.0661 2.11545,122.5994 -12.15633,137.9601 -9.50925,10.2348 -16.41504,13.1513 -31.13992,13.1513 -12.68753,0 -13.25877,-0.2512 -23.22044,-10.2129 z"
     id="path930"
     transform="scale(0.75000002)" />
  <path
     style="fill:#ffffff;stroke-width:2.13333"
     d="m 322.66667,1544.3785 c -16.52087,-8.5924 -23.22895,-20.008 -21.9716,-37.3908 1.02382,-14.154 6.69621,-23.5258 51.52084,-85.121 71.65198,-98.4598 92.86771,-125.0887 103.05005,-129.3432 25.45325,-10.635 54.06737,9.6217 54.06737,38.2759 0,8.1751 -2.01487,12.2144 -16.19901,32.4748 -46.0679,65.8029 -121.57084,168.5262 -128.07188,174.2444 -11.10538,9.7682 -30.70597,12.9396 -42.39577,6.8599 z"
     id="path932"
     transform="scale(0.75000002)" />
  <path
     transform="scale(0.75000002)"
     id="path872"
     d="M 453.68332,413.32241 C 441.75981,405.85802 432.09727,394.00883 381.0619,324.26666 308.82204,225.54758 300.26667,212.2453 300.26667,198.6426 c 0,-19.86184 17.74158,-37.12145 38.47475,-37.42956 18.44267,-0.27406 26.30361,8.65069 114.15166,129.59981 59.83661,82.38299 57.25459,77.52121 51.98018,97.8751 -2.46493,9.51217 -12.61768,20.15021 -24.29258,25.45374 -11.34673,5.15446 -17.66224,4.96209 -26.89736,-0.81928 z"
     style="fill:#ffcc00;stroke-width:2.13333" />
  <path
     transform="scale(0.75000002)"
     id="path874"
     d="m 800.53333,302.14513 c -3.52,-1.64192 -10.33184,-6.40425 -15.13742,-10.58298 l -8.73742,-7.59765 -1.19426,-125.34538 -1.19426,-125.345383 7.38073,-8.63687 C 791.94849,12.586486 802.87679,6.4241479 813.97261,6.4109266 825.69563,6.3969575 832.69609,10.094495 843.84399,22.18854 L 852.8,31.904667 852.61012,107.15233 C 852.50569,148.53855 851.78272,204 851.00351,230.4 c -1.32954,45.04603 -1.71833,48.48571 -6.31765,55.89246 -9.18377,14.78956 -30.23102,22.34645 -44.15253,15.85267 z"
     style="fill:#ffcc00;stroke-width:2.13333" />
  <path
     transform="scale(0.75000002)"
     id="path876"
     d=""
     style="fill:#ffcc00;stroke-width:2.13333" />
  <path
     transform="scale(0.75000002)"
     id="path878"
     d="m 1143.085,412.26336 c -18.7248,-9.5481 -26.4419,-31.75625 -17.3485,-49.92556 5.4345,-10.85876 31.5352,-48.31295 74.7968,-107.33269 40.9639,-55.88506 65.2575,-85.99943 73.3648,-90.94313 14.205,-8.66196 32.9518,-3.45235 45.173,12.55327 10.2168,13.38049 10.2725,26.48519 0.1836,43.21562 -20.0462,33.24274 -122.3119,172.0401 -135.5693,183.99767 -14.3593,12.95151 -26.7105,15.51748 -40.6004,8.43482 z"
     style="fill:#ffcc00;stroke-width:2.13333" />
  <path
     transform="scale(0.75000002)"
     id="path880"
     d=""
     style="fill:#ffcc00;stroke-width:2.13333" />
  <path
     transform="scale(0.75000002)"
     id="path882"
     d="m 1352.4811,703.87714 c -16.8311,-11.15305 -22.1572,-33.2369 -12.1388,-50.33203 4.5329,-7.73477 8.2475,-10.58715 22.9334,-17.61009 28.8118,-13.77816 195.3212,-67.13789 217.7185,-69.77024 13.2556,-1.55794 19.9768,1.22109 31.2055,12.90262 6.7027,6.97291 7.4772,9.0694 8.2223,22.25467 0.7901,13.98404 0.5411,14.8776 -6.3331,22.71935 -9.5596,10.9052 -22.382,16.41533 -93.9958,40.39246 -131.0839,43.88837 -153.0891,49.06675 -167.612,39.44326 z"
     style="fill:#ffcc00;stroke-width:2.13333" />
  <path
     transform="scale(0.75000002)"
     id="path884"
     d="m 1566.4,1138.1099 c -22.4093,-6.1822 -201.6047,-67.0922 -210.0328,-71.392 -11.6236,-5.9299 -21.4339,-21.0879 -21.4339,-33.1179 0,-11.025 9.7428,-27.1095 19.4668,-32.138 15.3607,-7.94327 46.6183,-0.2554 179.7896,44.2197 53.9357,18.0129 72.9606,26.4239 80.7756,35.7115 5.1508,6.1213 5.8347,8.6984 5.8347,21.9845 0,14.8637 -0.1126,15.1629 -9.0737,24.1241 -8.6689,8.6688 -20.4654,13.9782 -30.393,13.6792 -2.3466,-0.071 -9.0666,-1.4527 -14.9333,-3.0711 z"
     style="fill:#ffcc00;stroke-width:2.13333" />
  <path
     transform="scale(0.75000002)"
     id="path886"
     d="m 1277.8624,1544.2788 c -10.152,-2.9311 -22.3305,-18.2477 -101.3248,-127.4351 -45.8598,-63.3881 -54.9433,-78.3304 -54.9296,-90.3587 0.018,-16.0213 22.2125,-37.9517 38.4085,-37.9517 7.294,0 20.0277,7.656 28.7007,17.256 15.0168,16.6217 110.0578,146.3473 131.0005,178.8081 7.1883,11.1418 8.8156,15.5414 8.8156,23.8342 0,12.8282 -9.5021,26.396 -23.416,33.4351 -10.0891,5.104 -16.0914,5.6353 -27.2549,2.4121 z"
     style="fill:#ffcc00;stroke-width:2.13333" />
  <path
     transform="scale(0.75000002)"
     id="path888"
     d="m 792.93471,1692.427 c -15.71066,-14.1936 -14.88533,-6.428 -14.89331,-140.1338 -0.004,-67.3824 0.84888,-122.5177 1.93919,-125.3573 4.45433,-11.6011 23.69163,-25.3359 35.48608,-25.3359 8.3749,0 21.09729,7.3998 29.40084,17.1007 l 7.45928,8.7145 1.48125,51.6257 c 0.81468,28.3942 1.16116,83.4651 0.76994,122.3797 l -0.71131,70.754 -6.4,9.0823 c -8.23076,11.6802 -21.9297,19.0098 -35.5294,19.0098 -8.8971,0 -11.52504,-1.0842 -19.00256,-7.8397 z"
     style="fill:#ffcc00;stroke-width:2.13333" />
  <path
     transform="scale(0.75000002)"
     id="path890"
     d="m 322.02098,1542.2396 c -20.32657,-10.3267 -25.50931,-31.9281 -13.20099,-55.0208 6.65935,-12.4943 83.61913,-119.2804 113.62168,-157.6566 21.04626,-26.9203 30.9596,-36.0813 41.10349,-37.9843 22.07019,-4.1404 43.65484,14.7455 43.65484,38.1967 0,10.9083 -5.28035,19.6716 -45.93131,76.2281 -63.32961,88.1087 -97.14438,131.712 -105.05508,135.4659 -12.35953,5.865 -23.66423,6.1199 -34.19263,0.771 z"
     style="fill:#ffcc00;stroke-width:2.13333" />
  <path
     transform="scale(0.75000002)"
     id="path892"
     d="m 27.149372,1140.8 c -11.17647,-5.6542 -22.6575471,-19.9208 -24.6717923,-30.6576 -1.92671933,-10.2703 1.8690567,-21.843 10.2905023,-31.3739 8.733623,-9.8843 32.625157,-19.0629 142.252708,-54.6505 89.67975,-29.11215 100.66604,-31.87239 112.61211,-28.29326 14.8814,4.45856 30.33542,24.47476 30.45359,39.44376 0.0606,7.6642 -5.27904,20.3691 -11.25498,26.7802 -7.34558,7.8805 -20.82197,13.7661 -63.36484,27.6739 -21.70667,7.0962 -64.90667,21.2285 -96,31.4052 -51.092985,16.7224 -78.354924,24.3314 -87.547971,24.4352 -1.804717,0.02 -7.550914,-2.123 -12.769327,-4.763 z"
     style="fill:#ffcc00;stroke-width:2.13333" />
  <path
     transform="scale(0.75000002)"
     id="path894"
     d="M 225.1674,704.96503 C 183.52063,692.6906 47.553124,646.89881 31.680542,639.80161 14.776091,632.24302 6.2536141,622.4452 4.3703791,608.40464 1.8972305,589.96594 14.940066,572.04289 35.095142,566.18365 c 10.96332,-3.18712 11.960988,-3.1068 31.049404,2.49962 21.575938,6.33703 147.707824,48.54501 187.684214,62.80547 19.74696,7.04417 26.36704,10.45252 31.37043,16.15108 7.95712,9.06266 11.8109,21.50709 9.8678,31.86465 -1.96645,10.48213 -18.19243,27.94748 -28.66744,30.85711 -11.0996,3.08313 -13.54833,2.76264 -41.23215,-5.39655 z"
     style="fill:#ffcc00;stroke-width:2.13333" />
</svg>
